<svg id="Capa_1" enable-background="new 0 0 512 512" height="512" viewBox="0 0 512 512" width="512" xmlns="http://www.w3.org/2000/svg"><path d="m402.037 378.073-14.255 20.502c-12.557 18.059-32.255 30.05-54.044 32.896-19.476 2.545-40.019-2.678-56.479-14.338-12.509-10.166-26.422-18.297-41.272-24.192 15.366-26.328 23.425-56.102 23.425-86.947 0-2.004-.035-4.008-.104-6.013h104.751v-79.909h-127.115c-20.247-26.038-25.727-44.946-25.727-62.039 0-43.079 35.048-78.127 78.127-78.127 34.16 0 64.079 21.837 74.451 54.339l76.127-24.29c-10.112-31.694-29.633-58.969-56.45-78.877-27.391-20.33-59.939-31.078-94.129-31.078-87.141 0-158.035 70.894-158.035 158.035 0 21.446 4.331 42.564 12.636 62.039h-69.578v79.909h104.946c.128 1.998.191 4.003.191 6.013 0 36.321-22.277 70.422-55.513 85.102-23.918 8.626-45.594 23.021-62.735 41.668l-16.9 18.385 58.834 54.077 16.899-18.387c7.011-7.63 15.673-13.881 25.192-18.207 0 0 5.858-2.246 7.603-2.972 4.799-1.602 9.695-2.736 14.561-3.371 21.449-2.8 43.31 3.51 59.979 17.315l1.972 1.532c27.342 19.902 60.978 30.862 94.713 30.862 6.692 0 13.414-.435 19.982-1.293 44.075-5.759 83.912-30.002 109.299-66.514l14.255-20.502z"/></svg>